<svg>
    <symbol id="logo" viewBox="0 0 118 20" xmlns="http://www.w3.org/2000/svg">
        <g>
            <path d="M4.11208 19.7497V13.3417L0 1.85232H2.06807L5.09802 10.7134L8.58488 0H10.4846L6.01182 13.4168V19.7497H4.11208Z" fill="#FF3029"/>
            <path d="M16.0877 16.8961C16.0877 17.4969 16.1118 18.0476 16.1599 18.5482C16.208 19.0488 16.2561 19.4493 16.3042 19.7497H14.717C14.685 19.6162 14.6529 19.4577 14.6208 19.2741C14.5888 19.0905 14.5647 18.9153 14.5487 18.7484H14.4285C14.1559 19.0989 13.8433 19.3826 13.4906 19.5995C13.1379 19.8164 12.6971 19.9249 12.168 19.9249C11.3023 19.9249 10.6009 19.5995 10.0639 18.9487C9.52683 18.2979 9.2583 17.3467 9.2583 16.0951C9.2583 15.4276 9.34647 14.8185 9.52282 14.2678C9.69917 13.7172 9.97571 13.2541 10.3525 12.8786C10.7292 12.5031 11.2141 12.2111 11.8073 12.0025C12.4005 11.7939 13.1219 11.6896 13.9716 11.6896H14.2361V10.9387C14.2361 10.1043 14.1038 9.50356 13.8393 9.13643C13.5748 8.7693 13.178 8.58574 12.649 8.58574C12.168 8.58574 11.7272 8.69838 11.3264 8.92367C10.9256 9.14895 10.5649 9.40343 10.2442 9.68712L9.88353 7.95996C10.1561 7.72634 10.5528 7.50106 11.0739 7.28412C11.5949 7.06718 12.16 6.95871 12.7692 6.95871C13.2982 6.95871 13.7712 7.02546 14.188 7.15896C14.6048 7.29246 14.9535 7.51357 15.2341 7.82229C15.5146 8.13101 15.727 8.53985 15.8713 9.04882C16.0156 9.55779 16.0877 10.1961 16.0877 10.9637V16.8961ZM14.2361 13.1665H14.0197C13.4425 13.1665 12.9696 13.229 12.6009 13.3542C12.2321 13.4794 11.9436 13.6629 11.7352 13.9049C11.5268 14.1469 11.3825 14.4347 11.3023 14.7685C11.2222 15.1022 11.1821 15.4693 11.1821 15.8698C11.1821 16.6041 11.2983 17.1882 11.5308 17.622C11.7632 18.0559 12.1199 18.2729 12.6009 18.2729C12.9215 18.2729 13.2301 18.1769 13.5267 17.985C13.8233 17.7931 14.0597 17.5553 14.2361 17.2716V13.1665Z" fill="#2B2B2B"/>
            <path d="M20.2959 19.7497H18.4202V7.1089H20.2959V8.21027H20.4161C20.4962 8.09346 20.6125 7.95996 20.7648 7.80977C20.9171 7.65959 21.0974 7.52191 21.3058 7.39676C21.5143 7.2716 21.7427 7.1673 21.9912 7.08387C22.2397 7.00043 22.5082 6.95871 22.7968 6.95871C24.416 6.95871 25.2255 7.90989 25.2255 9.81228V19.7497H23.3258V9.9875C23.3258 9.50356 23.2296 9.16981 23.0372 8.98624C22.8449 8.80268 22.5643 8.7109 22.1956 8.7109C21.7948 8.7109 21.4341 8.84023 21.1135 9.09889C20.7928 9.35754 20.5203 9.6454 20.2959 9.96247V19.7497Z" fill="#2B2B2B"/>
            <path d="M30.7564 19.9249C29.554 19.9249 28.6402 19.416 28.015 18.398C27.3898 17.3801 27.0771 15.8865 27.0771 13.9174C27.0771 11.5811 27.4579 9.83731 28.2194 8.68587C28.9809 7.53442 29.9708 6.95871 31.1892 6.95871C31.4778 6.95871 31.7624 7.0046 32.0429 7.09638C32.3235 7.18816 32.5519 7.3008 32.7283 7.4343V1.85233H34.6039V19.7497H33.2092L33.0649 18.7484H32.9447C32.6721 19.0989 32.3635 19.3826 32.0189 19.5995C31.6742 19.8164 31.2534 19.9249 30.7564 19.9249ZM32.7283 9.16146C32.5359 8.96121 32.3315 8.81102 32.1151 8.7109C31.8986 8.61077 31.6301 8.56071 31.3095 8.56071C30.9247 8.56071 30.5921 8.69838 30.3115 8.97373C30.031 9.24907 29.7985 9.61619 29.6141 10.0751C29.4298 10.534 29.2935 11.0597 29.2053 11.6521C29.1172 12.2445 29.0731 12.8661 29.0731 13.5169C29.0731 15.0021 29.2174 16.166 29.5059 17.0088C29.7945 17.8515 30.2835 18.2729 30.9728 18.2729C31.4377 18.2729 31.8064 18.1727 32.079 17.9725C32.3515 17.7722 32.5679 17.5469 32.7283 17.2966V9.16146Z" fill="#2B2B2B"/>
            <path d="M43.4294 18.8986C43.0446 19.2157 42.6158 19.466 42.1429 19.6496C41.6699 19.8331 41.1289 19.9249 40.5197 19.9249C39.2692 19.9249 38.2833 19.4201 37.5619 18.4105C36.8404 17.4009 36.4797 15.9199 36.4797 13.9675C36.4797 12.9495 36.5479 12.015 36.6841 11.164C36.8204 10.3129 37.0368 9.57448 37.3334 8.9487C37.63 8.32291 38.0107 7.83481 38.4757 7.48437C38.9406 7.13393 39.4937 6.95871 40.1349 6.95871C40.6319 6.95871 41.0888 7.06301 41.5056 7.2716C41.9224 7.4802 42.2751 7.81812 42.5637 8.28537C42.8523 8.75262 43.0767 9.35754 43.237 10.1001C43.3973 10.8427 43.4775 11.748 43.4775 12.816V13.8924H38.4276C38.4276 15.3275 38.6159 16.4122 38.9927 17.1464C39.3694 17.8807 39.9345 18.2478 40.688 18.2478C41.2171 18.2478 41.6739 18.1519 42.0587 17.96C42.4435 17.7681 42.7561 17.5803 42.9965 17.3968L43.4294 18.8986ZM40.1349 8.56071C39.5578 8.56071 39.149 8.89863 38.9085 9.57448C38.668 10.2503 38.5157 11.1556 38.4516 12.2904H41.5537C41.5537 11.7564 41.5297 11.2599 41.4816 10.801C41.4335 10.3421 41.3573 9.94578 41.2531 9.61203C41.1489 9.27828 41.0046 9.01962 40.8203 8.83606C40.6359 8.65249 40.4075 8.56071 40.1349 8.56071Z" fill="#2B2B2B"/>
            <path d="M51.6296 7.13391L49.3691 13.0413L51.8941 19.7497H49.9463L48.0706 14.5432L46.243 19.7497H44.3914L46.9163 13.2165L44.6318 7.13391H46.5797L48.1427 11.7146L49.802 7.13391H51.6296Z" fill="#2B2B2B"/>
            <path d="M62.499 14.1928H58.435L57.3288 19.7497H56.2708L59.9259 1.85233H61.1764L64.8075 19.7497H63.6292L62.499 14.1928ZM58.6274 13.1665H62.3066L60.8157 5.78224C60.7355 5.39842 60.6714 4.98124 60.6233 4.53067C60.5752 4.08011 60.5432 3.70464 60.5271 3.40427H60.479C60.447 3.70464 60.3949 4.06759 60.3227 4.49313C60.2506 4.91866 60.1744 5.34002 60.0943 5.75721L58.6274 13.1665Z" fill="#2B2B2B"/>
            <path d="M70.6034 8.28537C69.2405 8.33543 68.2785 9.23655 67.7173 10.9887V19.7497H66.5869V7.13393H67.6211L67.6692 9.66209H67.7414C67.8376 9.36172 67.9698 9.06134 68.1382 8.76097C68.3066 8.46059 68.511 8.18942 68.7515 7.94745C68.992 7.70548 69.2686 7.50523 69.5813 7.3467C69.8939 7.18817 70.2346 7.09221 70.6034 7.05884V8.28537Z" fill="#2B2B2B"/>
            <path d="M75.4843 18.9737C75.869 18.9737 76.2097 18.907 76.5063 18.7735C76.8029 18.64 77.0554 18.4814 77.2638 18.2979C77.5043 18.1143 77.7127 17.889 77.889 17.622L78.2497 18.5982C78.0734 18.8653 77.8489 19.0989 77.5764 19.2991C77.352 19.4827 77.0594 19.6454 76.6987 19.7872C76.338 19.9291 75.9252 20 75.4602 20C74.2418 20 73.3 19.4285 72.6347 18.2854C71.9694 17.1423 71.6367 15.5361 71.6367 13.4668C71.6367 11.3809 71.9654 9.76221 72.6227 8.61076C73.28 7.45932 74.2338 6.88361 75.4843 6.88361C76.1095 6.88361 76.6386 6.99625 77.0714 7.22153C77.5043 7.44681 77.857 7.72632 78.1295 8.06008L77.8169 9.31164C77.5443 8.92783 77.2157 8.59408 76.8309 8.31039C76.4462 8.0267 75.9973 7.88486 75.4843 7.88486C74.5545 7.88486 73.8691 8.36879 73.4282 9.33667C72.9874 10.3046 72.7669 11.6813 72.7669 13.4668C72.7669 15.2023 72.9834 16.554 73.4162 17.5219C73.8491 18.4898 74.5384 18.9737 75.4843 18.9737Z" fill="#2B2B2B"/>
            <path d="M85.1514 19.7497C85.1033 19.5828 85.0512 19.37 84.995 19.1114C84.9389 18.8527 84.8949 18.4981 84.8628 18.0476C84.5742 18.6483 84.2135 19.1239 83.7807 19.4743C83.3478 19.8248 82.8268 20 82.2176 20C81.4 20 80.7347 19.6788 80.2217 19.0363C79.7087 18.3938 79.4521 17.4969 79.4521 16.3454C79.4521 14.9937 79.7968 13.9716 80.4862 13.2791C81.1755 12.5866 82.1775 12.2403 83.4921 12.2403H84.8147V10.6633C84.8147 9.69545 84.6464 8.99458 84.3097 8.5607C83.973 8.12682 83.468 7.90989 82.7947 7.90989C82.2817 7.90989 81.8008 8.03087 81.3519 8.27284C80.903 8.51481 80.5343 8.85273 80.2457 9.28661L79.9331 8.1602C80.1736 7.82645 80.5383 7.53025 81.0272 7.27159C81.5162 7.01293 82.1054 6.88361 82.7947 6.88361C83.8047 6.88361 84.5782 7.17981 85.1153 7.77222C85.6523 8.36463 85.9209 9.2866 85.9209 10.5382V17.4218C85.9209 17.8557 85.9449 18.2937 85.993 18.7359C86.0411 19.1781 86.1052 19.5161 86.1854 19.7497H85.1514ZM82.4581 19.0488C83.0192 19.0488 83.4961 18.8068 83.8889 18.3229C84.2816 17.839 84.5903 17.2549 84.8147 16.5707V13.0914H83.5161C82.5062 13.0914 81.7607 13.3417 81.2797 13.8423C80.7988 14.3429 80.5583 15.1439 80.5583 16.2453C80.5583 17.1464 80.7307 17.839 81.0753 18.3229C81.42 18.8068 81.8809 19.0488 82.4581 19.0488Z" fill="#2B2B2B"/>
            <path d="M92.3656 7.88486C91.7564 7.88486 91.2274 8.12682 90.7785 8.61076C90.3296 9.09471 89.9529 9.73717 89.6483 10.5382V19.7497H88.5181V7.13392H89.5521L89.6002 9.21152H89.6483C89.7284 8.97789 89.8527 8.72758 90.021 8.46058C90.1894 8.19358 90.3938 7.94326 90.6342 7.70964C90.8747 7.47601 91.1552 7.27994 91.4759 7.1214C91.7965 6.96287 92.1652 6.88361 92.5821 6.88361C93.3997 6.88361 94.0289 7.14226 94.4698 7.65958C94.9106 8.17689 95.1311 8.93617 95.1311 9.93742V19.7497H94.0008V10.0876C94.0008 8.6191 93.4558 7.88486 92.3656 7.88486Z" fill="#2B2B2B"/>
            <path d="M100.349 18.9987C100.958 18.9987 101.483 18.7568 101.924 18.2728C102.365 17.7889 102.738 17.1464 103.042 16.3454V7.13391H104.173V19.7497H103.139L103.091 17.6721H103.042C102.962 17.9057 102.842 18.156 102.682 18.423C102.521 18.69 102.325 18.9403 102.093 19.174C101.86 19.4076 101.584 19.6037 101.263 19.7622C100.942 19.9207 100.574 20 100.157 20C99.3392 20 98.714 19.7038 98.2811 19.1114C97.8483 18.519 97.6318 17.6554 97.6318 16.5206V7.13391H98.7621V16.3705C98.7621 18.1227 99.2911 18.9987 100.349 18.9987Z" fill="#2B2B2B"/>
            <path d="M107.996 19.7497H106.866V7.13392H107.9L107.948 9.0363H107.996C108.093 8.83605 108.217 8.61077 108.369 8.36045C108.521 8.11014 108.71 7.87651 108.934 7.65958C109.159 7.44264 109.419 7.25908 109.716 7.10889C110.012 6.9587 110.345 6.88361 110.714 6.88361C111.98 6.88361 112.726 7.57613 112.95 8.9612H112.974C113.054 8.79433 113.171 8.58991 113.323 8.34794C113.475 8.10597 113.668 7.87651 113.9 7.65958C114.132 7.44264 114.397 7.25908 114.694 7.10889C114.99 6.9587 115.323 6.88361 115.692 6.88361C116.413 6.88361 116.978 7.12557 117.387 7.60951C117.796 8.09345 118 8.81101 118 9.7622V19.7497H116.87V9.91239C116.87 9.21151 116.766 8.69838 116.557 8.37297C116.349 8.04756 116.004 7.88486 115.523 7.88486C114.962 7.88486 114.473 8.10597 114.056 8.54819C113.64 8.99041 113.287 9.55361 112.998 10.2378V19.7497H111.868V9.91239C111.868 9.21151 111.768 8.69838 111.567 8.37297C111.367 8.04756 111.026 7.88486 110.545 7.88486C109.984 7.88486 109.495 8.11014 109.079 8.5607C108.662 9.01127 108.301 9.61201 107.996 10.363V19.7497Z" fill="#2B2B2B"/>
        </g>
    </symbol>

    <symbol id="folder" fill="inherit" viewBox="0 0 12 9" xmlns="http://www.w3.org/2000/svg">
        <path d="M10.875 1.5H6.375L4.875 0H1.125C0.492188 0 0 0.515625 0 1.125V7.875C0 8.50781 0.492188 9 1.125 9H10.875C11.4844 9 12 8.50781 12 7.875V2.625C12 2.01562 11.4844 1.5 10.875 1.5Z"/>
    </symbol>

    <symbol id="branch" fill="inherit" viewBox="0 0 10 13" xmlns="http://www.w3.org/2000/svg">
        <path d="M9.23679 3.875C9.23679 2.84375 8.39304 2 7.36179 2C6.3071 2 5.48679 2.84375 5.48679 3.875C5.48679 4.74219 6.04929 5.46875 6.82273 5.67969C6.79929 6.05469 6.72898 6.35938 6.56492 6.54688C6.21335 6.99219 5.41648 7.08594 4.57273 7.15625C3.91648 7.20312 3.21335 7.27344 2.67429 7.55469V4.17969C3.42429 3.94531 3.98679 3.21875 3.98679 2.375C3.98679 1.34375 3.14304 0.5 2.11179 0.5C1.0571 0.5 0.236791 1.34375 0.236791 2.375C0.236791 3.21875 0.775853 3.94531 1.54929 4.17969V8.84375C0.775853 9.07812 0.236791 9.80469 0.236791 10.625C0.236791 11.6797 1.0571 12.5 2.11179 12.5C3.14304 12.5 3.98679 11.6797 3.98679 10.625C3.98679 9.82812 3.47117 9.14844 2.76804 8.89062C2.83835 8.77344 2.95554 8.65625 3.1196 8.5625C3.4946 8.375 4.08054 8.32812 4.66648 8.28125C5.67429 8.1875 6.77585 8.07031 7.45554 7.25C7.78367 6.85156 7.94773 6.3125 7.94773 5.65625C8.69773 5.42188 9.23679 4.71875 9.23679 3.875ZM2.11179 2C2.29929 2 2.48679 2.1875 2.48679 2.375C2.48679 2.58594 2.29929 2.75 2.11179 2.75C1.90085 2.75 1.73679 2.58594 1.73679 2.375C1.73679 2.1875 1.90085 2 2.11179 2ZM2.11179 11C1.90085 11 1.73679 10.8359 1.73679 10.625C1.73679 10.4375 1.90085 10.25 2.11179 10.25C2.29929 10.25 2.48679 10.4375 2.48679 10.625C2.48679 10.8359 2.29929 11 2.11179 11ZM7.36179 3.5C7.54929 3.5 7.73679 3.6875 7.73679 3.875C7.73679 4.08594 7.54929 4.25 7.36179 4.25C7.15085 4.25 6.98679 4.08594 6.98679 3.875C6.98679 3.6875 7.15085 3.5 7.36179 3.5Z"/>
    </symbol>

    <symbol id="commit" viewBox="0 0 40 40" fill="none" xmlns="http://www.w3.org/2000/svg">
        <g>
            <circle cx="20" cy="20" r="20" fill="#EBF6FD"/>
            <path d="M12 12V18.4H15.29C15.395 17.5475 15.62 16.4575 16.09 16.03C16.5287 15.6312 17.5775 15.4188 18.4 15.31V12H12ZM19.52 15.84C19.1362 15.84 17.0012 16.0625 16.52 16.5C15.9962 16.9762 15.84 19.2862 15.84 19.52C15.84 19.8675 16.025 22.045 16.5 22.52C16.87 22.9262 18.3387 23.1075 19.09 23.17C19.2312 22.1362 19.695 21.185 20.44 20.44C21.185 19.695 22.1362 19.2312 23.17 19.09C23.105 18.3325 22.915 16.895 22.54 16.52C22.0638 15.9962 19.7537 15.84 19.52 15.84ZM23.84 19.68C22.7225 19.68 21.6725 20.1075 20.89 20.89C20.1075 21.6725 19.68 22.7225 19.68 23.84C19.68 24.9575 20.1075 26.0075 20.89 26.79C21.6725 27.5725 22.7225 28 23.84 28C24.9575 28 26.0075 27.5725 26.79 26.79C27.5725 26.0075 28 24.9575 28 23.84C28 22.7225 27.5725 21.6725 26.79 20.89C26.0075 20.1075 24.9575 19.68 23.84 19.68Z" fill="#FF5668"/>
        </g>
    </symbol>

    <symbol id="edit-code" viewBox="0 0 17 15" fill="inherit" xmlns="http://www.w3.org/2000/svg">
        <path d="M7.39844 14.75C7.53516 14.7773 7.64453 14.7227 7.67188 14.6133L11.5273 1.35156C11.5547 1.24219 11.5 1.10547 11.3906 1.07812L10.3242 0.777344C10.2148 0.75 10.0781 0.804688 10.0508 0.914062L6.19531 14.1758C6.16797 14.2852 6.22266 14.4219 6.35938 14.4492L7.39844 14.75ZM5.12891 11.4414L5.86719 10.6484C5.94922 10.5664 5.94922 10.4297 5.86719 10.3477L2.96875 7.75L5.86719 5.17969C5.94922 5.09766 5.94922 4.96094 5.86719 4.87891L5.12891 4.08594C5.04688 4.00391 4.91016 3.97656 4.82812 4.05859L1.05469 7.61328C0.972656 7.69531 0.972656 7.83203 1.05469 7.91406L4.82812 11.4414C4.91016 11.5234 5.04688 11.5234 5.12891 11.4414ZM12.8945 11.4414L16.668 7.91406C16.75 7.83203 16.75 7.69531 16.668 7.61328L12.8945 4.05859C12.8125 3.97656 12.6758 4.00391 12.5938 4.08594L11.8555 4.87891C11.7734 4.96094 11.7734 5.09766 11.8555 5.17969L14.7539 7.75L11.8555 10.3477C11.7734 10.4297 11.7734 10.5664 11.8555 10.6484L12.5938 11.4414C12.6758 11.5234 12.8125 11.5234 12.8945 11.4414Z"/>
    </symbol>

    <symbol id="file" fill="inherit" viewBox="0 0 9 13" xmlns="http://www.w3.org/2000/svg">
        <path d="M9 3.35938C9 3.24219 8.90625 3.05469 8.8125 2.96094L6.53906 0.6875C6.42188 0.570312 6.28125 0.5 6.14062 0.5H6V3.5H9V3.35938ZM5.8125 4.25C5.48438 4.25 5.25 4.01562 5.25 3.6875V0.5H0.5625C0.234375 0.5 0 0.757812 0 1.0625V11.9375C0 12.2656 0.234375 12.5 0.5625 12.5H8.4375C8.74219 12.5 9 12.2656 9 11.9375V4.25H5.8125ZM2.88281 9.89844C2.85938 9.92188 2.8125 9.94531 2.78906 9.94531C2.76562 9.94531 2.71875 9.92188 2.69531 9.89844L1.17188 8.46875C1.14844 8.46875 1.14844 8.42188 1.14844 8.375C1.14844 8.35156 1.14844 8.30469 1.17188 8.30469L2.69531 6.875C2.71875 6.85156 2.76562 6.82812 2.78906 6.82812C2.8125 6.82812 2.85938 6.85156 2.88281 6.875L3.32812 7.36719C3.35156 7.39062 3.375 7.41406 3.375 7.46094C3.375 7.48438 3.35156 7.53125 3.32812 7.55469L2.36719 8.375L3.32812 9.21875C3.35156 9.24219 3.375 9.28906 3.375 9.3125C3.375 9.35938 3.35156 9.38281 3.32812 9.40625L2.88281 9.89844ZM4.07812 11.0703L3.44531 10.9062C3.375 10.8828 3.35156 10.8359 3.35156 10.7656V10.7422L4.78125 5.77344C4.80469 5.72656 4.85156 5.67969 4.89844 5.67969C4.92188 5.67969 4.94531 5.67969 4.94531 5.70312L5.57812 5.86719C5.64844 5.89062 5.67188 5.9375 5.67188 6.00781V6.03125L4.24219 11C4.21875 11.0469 4.17188 11.0938 4.125 11.0938C4.10156 11.0938 4.07812 11.0938 4.07812 11.0703ZM7.85156 8.46875L6.32812 9.89844C6.30469 9.92188 6.25781 9.94531 6.23438 9.94531C6.21094 9.94531 6.16406 9.92188 6.14062 9.89844L5.69531 9.40625C5.67188 9.38281 5.64844 9.35938 5.64844 9.3125C5.64844 9.28906 5.67188 9.24219 5.69531 9.21875L6.65625 8.375L5.69531 7.55469C5.67188 7.53125 5.64844 7.48438 5.64844 7.46094C5.64844 7.41406 5.67188 7.39062 5.69531 7.36719L6.14062 6.875C6.16406 6.85156 6.21094 6.82812 6.23438 6.82812C6.25781 6.82812 6.30469 6.85156 6.32812 6.875L7.85156 8.30469C7.875 8.30469 7.89844 8.35156 7.89844 8.375C7.89844 8.42188 7.875 8.46875 7.85156 8.46875Z"/>
    </symbol>


    <symbol id="download"  viewBox="0 0 14 13" fill="none" xmlns="http://www.w3.org/2000/svg">
        <path d="M12.375 7.25C12.6797 7.25 12.9375 7.36719 13.1719 7.57812C13.3828 7.8125 13.5 8.07031 13.5 8.375V11.375C13.5 11.7031 13.3828 11.9609 13.1719 12.1719C12.9375 12.4062 12.6797 12.5 12.375 12.5H1.125C0.796875 12.5 0.539062 12.4062 0.328125 12.1719C0.09375 11.9609 0 11.7031 0 11.375V8.375C0 8.07031 0.09375 7.8125 0.328125 7.57812C0.539062 7.36719 0.796875 7.25 1.125 7.25H3.28125L2.20312 6.17188C1.96875 5.9375 1.875 5.67969 1.875 5.375C1.875 5.07031 1.99219 4.8125 2.20312 4.57812C2.41406 4.36719 2.67188 4.25 3 4.25H4.5V1.625C4.5 1.32031 4.59375 1.0625 4.82812 0.828125C5.03906 0.617188 5.29688 0.5 5.625 0.5H7.875C8.17969 0.5 8.4375 0.617188 8.67188 0.828125C8.88281 1.0625 9 1.32031 9 1.625V4.25H10.5C10.8281 4.25 11.0859 4.36719 11.2969 4.57812C11.5078 4.8125 11.625 5.07031 11.625 5.375C11.625 5.67969 11.5312 5.9375 11.2969 6.17188L10.2188 7.25H12.375ZM3 5.375L6.75 9.125L10.5 5.375H7.875V1.625H5.625V5.375H3ZM12.375 11.375V8.375H9.09375L7.54688 9.92188C7.3125 10.1562 7.05469 10.25 6.75 10.25C6.42188 10.25 6.16406 10.1562 5.95312 9.92188L4.40625 8.375H1.125V11.375H12.375ZM10.3125 9.875C10.3125 10.0391 10.3594 10.1797 10.4766 10.2734C10.5703 10.3906 10.7109 10.4375 10.875 10.4375C11.0156 10.4375 11.1562 10.3906 11.2734 10.2734C11.3672 10.1797 11.4375 10.0391 11.4375 9.875C11.4375 9.73438 11.3672 9.59375 11.2734 9.47656C11.1562 9.38281 11.0156 9.3125 10.875 9.3125C10.7109 9.3125 10.5703 9.38281 10.4766 9.47656C10.3594 9.59375 10.3125 9.73438 10.3125 9.875Z" fill="black"/>
    </symbol>

    <symbol id="gow-to" width="13" height="13" viewBox="0 0 13 13" fill="none" xmlns="http://www.w3.org/2000/svg">
        <path d="M10.9375 0.625H1.3125C0.574219 0.625 0 1.22656 0 1.9375V11.5625C0 12.3008 0.574219 12.875 1.3125 12.875H10.9375C11.6484 12.875 12.25 12.3008 12.25 11.5625V1.9375C12.25 1.22656 11.6484 0.625 10.9375 0.625ZM10.7734 11.5625H1.47656C1.36719 11.5625 1.3125 11.5078 1.3125 11.3984V2.10156C1.3125 2.01953 1.36719 1.9375 1.47656 1.9375H10.7734C10.8555 1.9375 10.9375 2.01953 10.9375 2.10156V11.3984C10.9375 11.5078 10.8555 11.5625 10.7734 11.5625ZM9.29688 3.25H5.57812C5.27734 3.25 5.11328 3.60547 5.33203 3.82422L6.64453 5.13672L2.70703 9.07422C2.57031 9.21094 2.57031 9.42969 2.70703 9.53906L3.33594 10.168C3.44531 10.3047 3.66406 10.3047 3.80078 10.168L7.73828 6.23047L9.05078 7.54297C9.26953 7.73438 9.625 7.59766 9.625 7.29688V3.57812C9.625 3.41406 9.46094 3.25 9.29688 3.25Z" fill="#7F8285"/>
    </symbol>

    <symbol id="hamburger" viewBox="0 0 12 10" fill="none" xmlns="http://www.w3.org/2000/svg">
        <path d="M11.0703 1.77344C11.2227 1.77344 11.375 1.64648 11.375 1.46875V0.65625C11.375 0.503906 11.2227 0.351562 11.0703 0.351562H0.304688C0.126953 0.351562 0 0.503906 0 0.65625V1.46875C0 1.64648 0.126953 1.77344 0.304688 1.77344H11.0703ZM11.0703 5.83594C11.2227 5.83594 11.375 5.70898 11.375 5.53125V4.71875C11.375 4.56641 11.2227 4.41406 11.0703 4.41406H0.304688C0.126953 4.41406 0 4.56641 0 4.71875V5.53125C0 5.70898 0.126953 5.83594 0.304688 5.83594H11.0703ZM11.0703 9.89844C11.2227 9.89844 11.375 9.77148 11.375 9.59375V8.78125C11.375 8.62891 11.2227 8.47656 11.0703 8.47656H0.304688C0.126953 8.47656 0 8.62891 0 8.78125V9.59375C0 9.77148 0.126953 9.89844 0.304688 9.89844H11.0703Z" fill="black"/>
    </symbol>

    <symbol id="search" xmlns="http://www.w3.org/2000/svg" viewBox="0 0 19.8 19.8">
        <g>
            <path d="M13.4 12.8c1.2-1.4 1.9-3.1 1.9-5.1 0-4.2-3.4-7.7-7.7-7.7S0 3.4 0 7.7s3.4 7.7 7.7 7.7c2 0 3.7-.7 5.1-1.9l6.4 6.4.6-.6-6.4-6.5zm-5.7 1.7C4 14.5.9 11.5.9 7.7S3.9.9 7.7.9s6.8 3 6.8 6.8-3.1 6.8-6.8 6.8z"></path>
        </g>
    </symbol>

</svg>
